<?xml version="1.0" encoding="UTF-8"?>
<svg width="92px" height="95px" viewBox="0 0 92 95" version="1.1" xmlns="http://www.w3.org/2000/svg" xmlns:xlink="http://www.w3.org/1999/xlink">
    <!-- Generator: Sketch 63 (92445) - https://sketch.com -->
    <title>safari-pinned-tab</title>
    <desc>Created with Sketch.</desc>
    <g id="logo" stroke="none" stroke-width="1" fill="none" fill-rule="evenodd">
        <g id="safari-pinned-tab" transform="translate(0.000000, -1.000000)" fill="#000000">
            <g id="编组" transform="translate(0.296875, 0.832031)">
                <path d="M45.6495157,45.9262167 L69.2606612,77.4036884 L71.8870478,80.9047901 C71.0791459,82.1310691 70.1870679,83.2938712 69.2136355,84.3889647 C63.4539248,90.9223797 55.0250342,95.0450845 45.6495157,95.0450845 C36.2777592,95.0450845 27.8493388,90.9223797 22.0853959,84.3931965 C21.116666,83.298103 20.224588,82.1353009 19.4166861,80.9090219 L19.4166861,80.9090219 L22.0388404,77.4079202 L45.6495157,45.9262167 Z M45.6495157,52.97544 L24.5932777,81.0529028 C29.6128035,87.0996619 37.1872367,90.9604659 45.6495157,90.9604659 C54.1117946,90.9604659 61.6866982,87.0996619 66.7062239,81.048671 L66.7062239,81.048671 L45.6495157,52.97544 Z M91.3480322,0.176230583 L91.3480322,7.22075193 L82.6026584,19.1069123 L91.3480322,30.8289733 L91.3480322,37.6299316 L79.9132572,22.435451 L71.1547162,34.1048497 L91.3480322,61.025623 L91.3480322,68.3217008 L45.675709,7.43986466 L9.40514469e-05,68.3306346 L9.40514469e-05,61.1657423 L14.3537556,41.7831993 C14.6598931,41.3698944 14.8249534,40.8691324 14.8244831,40.3547347 L14.8244831,40.3547347 L14.8019108,7.24943407 L9.40514469e-05,7.25084467 L9.40514469e-05,2.59916601 L29.6032572,2.59916601 L29.6032572,7.25084467 L19.4301825,7.25084467 L19.4536953,35.3240757 L45.6644228,0.176230583 L68.5151624,30.5294565 L77.2342018,18.9131903 L68.5109301,7.10414258 L68.5109301,0.176230583 L79.9673368,15.5743073 L91.3480322,0.176230583 Z M58.7222906,32.9064535 L58.7222906,37.6300726 L32.5811612,37.6300726 L32.5811612,32.9064535 L58.7222906,32.9064535 Z" id="形状结合"></path>
            </g>
        </g>
    </g>
</svg>